0.16m3min_grf.mot
version=1
nRows=30
nColumns 19
inDegrees=yes
endheader
time	1_ground_force_vx	1_ground_force_vy	1_ground_force_vz	1_ground_force_px	1_ground_force_py	1_ground_force_pz	1_ground_torque_x	1_ground_torque_y	1_ground_torque_z	2_ground_force_vx	2_ground_force_vy	2_ground_force_vz	2_ground_force_px	2_ground_force_py	2_ground_force_pz	2_ground_torque_x	2_ground_torque_y	2_ground_torque_z
            2.440000	           -0.136413	           -4.867593	            0.071183	           -0.233013	            0.005581	           -0.255695	           -0.564684	           -0.119044	           -0.305569	            0.101716	           -2.209776	            0.085932	           -0.232311	            0.006130	           -0.833667	           -0.375406	           -0.104731	           -0.169863
            2.440500	           -0.411716	           -4.146387	            0.029102	           -0.233013	            0.005581	           -0.255695	           -0.619711	            0.065927	           -0.372788	            0.099202	           -1.474355	            0.417057	           -0.232311	            0.006130	           -0.833667	           -0.262542	           -0.133086	           -0.056911
            2.441000	            0.001604	           -5.048618	            0.253493	           -0.233013	            0.005581	           -0.255695	           -0.628910	            0.315695	           -0.354070	            0.148046	           -2.026630	            0.415065	           -0.232311	            0.006130	           -0.833667	           -0.318931	           -0.133020	           -0.132288
            2.441500	           -0.594519	           -4.147405	            0.258836	           -0.233013	            0.005581	           -0.255695	           -0.610523	            0.185614	           -0.286126	           -0.136500	           -1.105900	            0.136902	           -0.232311	            0.006130	           -0.833667	           -0.394143	           -0.096019	            0.018681
            2.442000	           -0.411246	           -3.606573	            0.260700	           -0.233013	            0.005581	           -0.255695	           -0.648647	            0.029036	           -0.391692	            0.099099	           -1.473518	            0.182416	           -0.232311	            0.006130	           -0.833667	           -0.356707	           -0.076440	           -0.132069
            2.442500	           -0.365514	           -4.867834	            0.117608	           -0.233013	            0.005581	           -0.255695	           -0.660125	           -0.258463	           -0.165319	           -0.227480	           -1.843333	            0.275098	           -0.232311	            0.006130	           -0.833667	           -0.356825	           -0.047947	           -0.169669
            2.443000	           -0.457395	           -5.047724	            0.025351	           -0.233013	            0.005581	           -0.255695	           -0.600265	           -0.220717	           -0.357190	           -0.276344	           -1.290890	            0.230161	           -0.232311	            0.006130	           -0.833667	           -0.394244	           -0.076844	           -0.056653
            2.443500	           -0.365597	           -3.786436	            0.168102	           -0.233013	            0.005581	           -0.255695	           -0.644110	           -0.184349	           -0.202676	            0.194107	           -1.841309	            0.134134	           -0.232311	            0.006130	           -0.833667	           -0.281599	           -0.066716	           -0.132068
            2.444000	           -0.183217	           -3.964897	           -0.245830	           -0.233013	            0.005581	           -0.255695	           -0.664359	            0.167611	           -0.343676	            0.006126	           -1.658507	            0.322583	           -0.232311	            0.006130	           -0.833667	           -0.319009	           -0.104864	           -0.075636
            2.444500	           -0.044337	           -4.507830	            0.255925	           -0.233013	            0.005581	           -0.255695	           -0.516350	            0.315212	           -0.243536	            0.146031	           -1.474018	            0.370109	           -0.232311	            0.006130	           -0.833667	           -0.394030	           -0.142811	           -0.113439
            2.445000	           -0.274040	           -4.326823	            0.073843	           -0.233013	            0.005581	           -0.255695	           -0.753047	            0.140074	           -0.403865	           -0.132554	           -2.210455	            0.039103	           -0.232311	            0.006130	           -0.833667	           -0.431620	           -0.124445	           -0.000255
            2.445500	           -0.044484	           -4.327368	            0.210842	           -0.233013	            0.005581	           -0.255695	           -0.570802	           -0.072943	           -0.263870	            0.287122	           -1.656655	            0.087823	           -0.232311	            0.006130	           -0.833667	           -0.337811	           -0.104797	           -0.113328
            2.446000	           -0.411617	           -4.687184	            0.026783	           -0.233013	            0.005581	           -0.255695	           -0.581572	           -0.267151	           -0.299099	           -0.182644	           -1.290552	            0.230121	           -0.232311	            0.006130	           -0.833667	           -0.394371	           -0.048284	           -0.113102
            2.446500	           -0.594729	           -4.867878	            0.118177	           -0.233013	            0.005581	           -0.255695	           -0.529258	           -0.257656	           -0.382193	           -0.183309	           -1.106403	            0.230778	           -0.232311	            0.006130	           -0.833667	           -0.375400	           -0.086431	           -0.000144
            2.447000	           -0.136218	           -4.687721	            0.163668	           -0.233013	            0.005581	           -0.255695	           -0.587772	           -0.063102	           -0.418067	            0.101113	           -2.026130	            0.227373	           -0.232311	            0.006130	           -0.833667	           -0.413166	           -0.039101	           -0.056510
            2.447500	           -0.228117	           -4.146745	            0.120358	           -0.233013	            0.005581	           -0.255695	           -0.567079	            0.213516	           -0.270476	            0.004693	           -1.289373	            0.089257	           -0.232311	            0.006130	           -0.833667	           -0.243850	           -0.113911	           -0.113402
            2.448000	           -0.090327	           -4.327377	            0.210956	           -0.233013	            0.005581	           -0.255695	           -0.627418	            0.260191	           -0.358246	            0.241040	           -1.841809	            0.321827	           -0.232311	            0.006130	           -0.833667	           -0.262627	           -0.114046	           -0.094544
            2.448500	           -0.227775	           -4.147334	            0.257926	           -0.233013	            0.005581	           -0.255695	           -0.591604	            0.102434	           -0.233296	            0.101799	           -2.210446	            0.273644	           -0.232311	            0.006130	           -0.833667	           -0.356496	           -0.114856	            0.037447
            2.449000	           -0.319200	           -4.328011	            0.349093	           -0.233013	            0.005581	           -0.255695	           -0.595596	           -0.146774	           -0.332248	            0.192114	           -1.288864	            0.136105	           -0.232311	            0.006130	           -0.833667	           -0.375466	           -0.085893	           -0.150945
            2.449500	           -0.410869	           -5.048895	            0.300372	           -0.233013	            0.005581	           -0.255695	           -0.574248	           -0.294950	           -0.280425	            0.006749	           -1.842320	            0.228070	           -0.232311	            0.006130	           -0.833667	           -0.356740	           -0.076171	           -0.207470
            2.450000	           -0.273504	           -4.147540	            0.303896	           -0.233013	            0.005581	           -0.255695	           -0.556022	           -0.137826	           -0.255167	            0.240272	           -1.656824	            0.087843	           -0.232311	            0.006130	           -0.833667	           -0.319163	           -0.057735	           -0.037767
            2.450500	           -0.044517	           -4.147102	            0.211615	           -0.233013	            0.005581	           -0.255695	           -0.552265	            0.065873	           -0.300923	            0.147319	           -1.841980	            0.274938	           -0.232311	            0.006130	           -0.833667	           -0.356691	           -0.067390	           -0.018935
            2.451000	           -0.181965	           -3.967060	            0.258585	           -0.233013	            0.005581	           -0.255695	           -0.648148	            0.232013	           -0.268247	            0.241060	           -1.841976	            0.368755	           -0.232311	            0.006130	           -0.833667	           -0.431789	           -0.086365	           -0.075521
            2.451500	           -0.273927	           -4.327019	            0.119699	           -0.233013	            0.005581	           -0.255695	           -0.585877	            0.195246	           -0.328851	            0.475954	           -2.025112	            0.321070	           -0.232311	            0.006130	           -0.833667	           -0.319145	           -0.067053	           -0.075501
            2.452000	           -0.136398	           -4.326993	            0.119358	           -0.233013	            0.005581	           -0.255695	           -0.566874	            0.028610	           -0.248556	            0.055675	           -2.395265	            0.413791	           -0.232311	            0.006130	           -0.833667	           -0.300282	           -0.095142	           -0.132161
            2.452500	           -0.274415	           -4.145967	           -0.062951	           -0.233013	            0.005581	           -0.255695	           -0.596930	           -0.137444	           -0.349054	            0.237717	           -0.921067	            0.325112	           -0.232311	            0.006130	           -0.833667	           -0.431755	           -0.095818	           -0.075554
            2.453000	           -0.410952	           -3.967497	            0.350866	           -0.233013	            0.005581	           -0.255695	           -0.558273	           -0.257730	           -0.336738	            0.427692	           -1.656315	            0.134691	           -0.232311	            0.006130	           -0.833667	           -0.394440	           -0.029379	           -0.113035
            2.453500	           -0.456924	           -4.507910	            0.256949	           -0.233013	            0.005581	           -0.255695	           -0.591587	           -0.128353	           -0.338036	           -0.041512	           -1.473523	            0.041692	           -0.232311	            0.006130	           -0.833667	           -0.338085	           -0.019992	           -0.037624
            2.454000	           -0.136511	           -4.326796	            0.073502	           -0.233013	            0.005581	           -0.255695	           -0.565113	            0.075148	           -0.323553	           -0.134465	           -1.658679	            0.228787	           -0.232311	            0.006130	           -0.833667	           -0.318855	           -0.151993	           -0.113505
            2.454500	           -0.319770	           -4.327028	            0.119813	           -0.233013	            0.005581	           -0.255695	           -0.604514	            0.194980	           -0.274366	            0.050337	           -0.921911	            0.372120	           -0.232311	            0.006130	           -0.833667	           -0.337675	           -0.133424	           -0.038029
